<svg xmlns="http://www.w3.org/2000/svg" viewBox="0 0 173.86 158.08"><defs><style>.cls-1,.cls-5{fill:#00679e;}.cls-2{fill:#004763;}.cls-3,.cls-6{fill:#ffca46;}.cls-4{fill:#ff9624;}.cls-5{font-size:32.68px;}.cls-5,.cls-6{font-family:Montserrat-Black, Montserrat Black;font-weight:800;}.cls-6{font-size:11.79px;}</style></defs><g id="Layer_2" data-name="Layer 2"><g id="OBJECTS"><path class="cls-1" d="M81.68,93.76c2.13-2.5,2.07-6.17,1.66-9.44-.94-7.57-3.11-14.93-5.27-22.25a12.58,12.58,0,0,0-2.15-4.73c-1.93-2.27-5.14-2.87-8.09-3.2-10.11-1.16-21-.76-29.56,4.7-3.41,2.17-6.6,5.81-5.85,9.78.51,2.76,2.76,4.8,4.29,7.16a15.14,15.14,0,0,1-.2,16.38c-1.51,2.22-3.77,4.55-3.07,7.14.53,2,2.54,3.06,4.38,3.89A99.22,99.22,0,0,0,49,107.44c3.72,1.16,7.8,2.1,11.46.73A12.65,12.65,0,0,0,66,103.69c1.39-1.86,2.08-5,3.62-6.58,1.29-1.31,4.18-.41,6.14-.63A8.77,8.77,0,0,0,81.68,93.76Z"/><path class="cls-2" d="M73.72,41q.41-5.66.8-11.33c.25-3.51.4-7.39-1.79-10.15-1.08-1.37-3-2.34-4.59-1.64-2.08.9-2.27,3.73-2.07,6A124,124,0,0,0,69,41.16c.34,1.44.57,5.65,2.79,5.58S73.61,42.42,73.72,41Z"/><path class="cls-2" d="M54.74,37.56l-.69-12.93c-.22-4-.59-8.41-3.12-11.23-1.26-1.4-3.28-2.24-4.78-1.23-1.94,1.31-1.75,4.54-1.25,7.06a157,157,0,0,0,5.16,19.23c.53,1.57,1.32,6.3,3.51,5.92S54.83,39.23,54.74,37.56Z"/><path class="cls-2" d="M39.2,38.83,34.91,24.7C33.58,20.32,32,15.53,28.75,13c-1.62-1.26-3.81-1.71-5-.24-1.52,1.9-.44,5.43.75,8.1a199.69,199.69,0,0,0,10.39,20c1,1.61,3,6.66,5.05,5.72S39.75,40.65,39.2,38.83Z"/><path class="cls-2" d="M26.41,50.65Q23.1,45.6,19.77,40.56c-2.06-3.13-4.43-6.5-7.93-7.5-1.75-.49-3.88-.15-4.7,1.43-1.06,2,.61,4.55,2.22,6.33A136.48,136.48,0,0,0,22.8,53.73c1.18,1,4.07,4.43,5.78,3S27.27,52,26.41,50.65Z"/><path class="cls-2" d="M17,86.84a12.76,12.76,0,0,0-7.86-1.65c-1.87.27-3.93,1.45-4,3.33-.05,1.71,1.56,3,3.06,3.76A31.48,31.48,0,0,0,16,95.19c2,.45,4.84,1.22,6.86.69C27.47,94.64,18.49,87.7,17,86.84Z"/><path class="cls-3" d="M70.23,88.46c-2-3.34-1.17-7.58,0-11.29,2.61-8.6,6.6-16.71,10.57-24.77a14.8,14.8,0,0,1,3.44-5.06c2.69-2.25,6.53-2.3,10-2.1,12,.68,24.49,3.31,33.37,11.37,3.52,3.19,6.49,8.06,4.83,12.52-1.15,3.1-4.17,5-6.41,7.44A17.84,17.84,0,0,0,123,95.62c1.32,2.88,3.47,6,2.14,8.91-1,2.15-3.55,3-5.85,3.63a116.47,116.47,0,0,1-13.83,2.7c-4.56.61-9.48.88-13.44-1.44a14.91,14.91,0,0,1-5.56-6.31c-1.23-2.43-1.4-6.23-2.88-8.36-1.23-1.78-4.77-1.31-7-2A10.39,10.39,0,0,1,70.23,88.46Z"/><path class="cls-4" d="M90,28.76q.67-6.66,1.33-13.31c.41-4.12,1-8.65,4.11-11.42C97,2.65,99.4,1.91,101.12,3c2.23,1.46,1.89,4.79,1.2,7.36A145,145,0,0,1,95.49,30c-.68,1.6-1.79,6.44-4.35,5.92C88.73,35.37,89.85,30.48,90,28.76Z"/><path class="cls-4" d="M112.72,28.62l3.39-14.87c1.06-4.61,2.37-9.65,5.87-12.41,1.74-1.38,4.25-1.95,5.79-.47,2,1.91,1.12,5.62,0,8.44A184.14,184.14,0,0,1,118,30.59c-.92,1.72-2.78,7.05-5.25,6.17C110.4,35.93,112.28,30.54,112.72,28.62Z"/><path class="cls-4" d="M130.51,33.19l7.8-15.54c2.41-4.81,5.21-10,9.49-12.33,2.13-1.13,4.76-1.22,5.83.72,1.39,2.51-.57,6.39-2.49,9.25a234.61,234.61,0,0,1-16.06,21.18c-1.42,1.68-4.85,7.12-7,5.63S129.5,35.2,130.51,33.19Z"/><path class="cls-4" d="M143,49.47q4.86-5.19,9.73-10.39c3-3.21,6.44-6.65,10.71-7.11,2.12-.23,4.52.6,5.16,2.59.82,2.58-1.62,5.16-3.84,6.91a162,162,0,0,1-18.18,12.3c-1.58.93-5.61,4.32-7.31,2.34S141.72,50.81,143,49.47Z"/><path class="cls-4" d="M146.73,93.37a14.86,14.86,0,0,1,9.45-.35c2.11.69,4.28,2.47,4,4.66-.29,2-2.4,3.11-4.31,3.75a36.63,36.63,0,0,1-9.61,1.83c-2.36.12-5.86.45-8.1-.58C133,100.31,144.78,94.05,146.73,93.37Z"/><text class="cls-5" transform="translate(27.82 140.07)">HELPING</text><text class="cls-6" transform="translate(69.97 155.13)">HANDS</text><path class="cls-3" d="M20.9,140.93A24.93,24.93,0,0,1,1.88,128,13.61,13.61,0,0,1,0,120.47a7.35,7.35,0,0,1,4.19-6.19c2.42-1,5.65.1,6.56,2.56,0-1.8,1.56-3.13,3.21-3.85a4.72,4.72,0,0,1,5,.87,6.5,6.5,0,0,1,1.77,4.69,28.4,28.4,0,0,1-.67,5.09A45.16,45.16,0,0,0,20.9,140.93Z"/><path class="cls-3" d="M153,140.93A24.94,24.94,0,0,0,172,128a13.69,13.69,0,0,0,1.84-7.52,7.39,7.39,0,0,0-4.19-6.19c-2.43-1-5.66.1-6.56,2.56,0-1.8-1.56-3.13-3.21-3.85a4.74,4.74,0,0,0-5,.87,6.53,6.53,0,0,0-1.76,4.69,29.32,29.32,0,0,0,.66,5.09A45,45,0,0,1,153,140.93Z"/></g></g></svg>